<?xml version="1.0" encoding="utf-8"?>
<!-- Generator: Adobe Illustrator 16.0.3, SVG Export Plug-In . SVG Version: 6.00 Build 0)  -->
<!DOCTYPE svg PUBLIC "-//W3C//DTD SVG 1.1//EN" "http://www.w3.org/Graphics/SVG/1.1/DTD/svg11.dtd">
<svg version="1.1" id="Layer_1" xmlns="http://www.w3.org/2000/svg" xmlns:xlink="http://www.w3.org/1999/xlink" x="0px" y="0px"
	 width="105.01px" height="117.574px" viewBox="0 0 105.01 117.574" enable-background="new 0 0 105.01 117.574"
	 xml:space="preserve">
<g>
	<path fill="#231F20" d="M54.53,109.203c-0.364,0-0.728-0.132-1.016-0.398c-1.835-1.701-44.949-42.011-45.853-74.469
		c-0.028-0.99,0.201-2.971,0.227-3.195c1.578-12.01,11.886-21.052,23.979-21.052c10.898,0,19.427,8.664,22.711,18.14
		c3.285-9.477,11.813-18.14,22.712-18.14c13.426,0,21.515,8.04,21.642,21.504c0.023,31.775-41.557,75.314-43.326,77.152
		C55.314,109.049,54.921,109.203,54.53,109.203z M31.867,13.077c-10.599,0-19.631,7.923-21.012,18.433
		c-0.086,0.738-0.221,2.158-0.205,2.742c0.792,28.435,37.06,64.801,43.821,71.335c6.466-6.982,41.493-46.103,41.472-73.979
		c-0.109-11.773-6.908-18.531-18.653-18.531c-10.934,0-19.693,10.767-21.012,20.823c-0.098,0.748-0.791,1.396-1.497,1.299
		c-0.07-0.001-0.138-0.005-0.203-0.015c-0.067,0.01-0.147,0.014-0.217,0.015c-0.747,0-1.384-0.555-1.482-1.299
		C51.56,23.844,42.801,13.077,31.867,13.077z"/>
</g>
</svg>
